ffmpeg started on 2025-05-26 at 19:12:03
Report written to "D:\Convert\FFMetrics\reports\psnr_report-6.txt"
Log level: 32
Command line:
ffmpeg -hide_banner -nostdin -i "G:\\\xc0\xed\xe8\xec\xe5\\\xce\xed\xe3\xee\xe8\xed\xe3\xe8\\!_34_\xc2\xe5\xf1\xed\xe0_2024\\DreamCast\\\xcc\xee\xe9 \xf1\xee\xf1\xe5\xe4-\xb8\xea\xe0\xe9\\[DC] Tonari no Youkai-san - 06_Telegram_HEVC.mkv" -i "G:\\\xc0\xed\xe8\xec\xe5\\\xce\xed\xe3\xee\xe8\xed\xe3\xe8\\!_34_\xc2\xe5\xf1\xed\xe0_2024\\DreamCast\\\xcc\xee\xe9 \xf1\xee\xf1\xe5\xe4-\xb8\xea\xe0\xe9\\[DC] Tonari no Youkai-san - 06_Telegram.mp4" -lavfi "[0:v]settb=AVTB,setpts=PTS-STARTPTS,format=pix_fmts=yuv420p10,fps=24000/1001,scale=1920:1080:flags=bicubic[main];[1:v]settb=AVTB,setpts=PTS-STARTPTS,format=pix_fmts=yuv420p,fps=24000/1001,scale=1920:1080:flags=bicubic[ref];[main][ref]psnr=eof_action=endall:stats_file='D\\:/Convert/FFMetrics/logs/psnr_logfile-6.txt'" -f null -
Input #0, matroska,webm, from 'G:\Аниме\Онгоинги\!_34_Весна_2024\DreamCast\Мой сосед-ёкай\[DC] Tonari no Youkai-san - 06_Telegram_HEVC.mkv':
  Metadata:
    COMPATIBLE_BRANDS: isomiso2avc1mp41
    MAJOR_BRAND     : isom
    MINOR_VERSION   : 512
    ENCODER         : Lavf61.7.100
  Duration: 00:23:46.60, start: -0.021000, bitrate: 878 kb/s
  Stream #0:0: Video: hevc (Main 10), yuv420p10le(tv, bt709, progressive), 1920x1080 [SAR 1:1 DAR 16:9], 23.98 fps, 23.98 tbr, 1k tbn (default)
      Metadata:
        HANDLER_NAME    : VideoHandler
        VENDOR_ID       : [0][0][0][0]
        ENCODER         : Lavc61.19.100 libx265
        BPS             : 681154
        DURATION        : 00:23:46.466708333
        NUMBER_OF_FRAMES: 34201
        NUMBER_OF_BYTES : 121455431
        _STATISTICS_WRITING_APP: mkvpropedit v66.0.0 ('Josie') 64-bit
        _STATISTICS_WRITING_DATE_UTC: 2025-05-26 13:30:24
        _STATISTICS_TAGS: BPS DURATION NUMBER_OF_FRAMES NUMBER_OF_BYTES
  Stream #0:1: Audio: aac (LC), 48000 Hz, stereo, fltp (default)
      Metadata:
        HANDLER_NAME    : SoundHandler
        VENDOR_ID       : [0][0][0][0]
        ENCODER         : Lavc61.19.100 aac
        BPS             : 192893
        DURATION        : 00:23:46.602000000
        NUMBER_OF_FRAMES: 66873
        NUMBER_OF_BYTES : 34397715
        _STATISTICS_WRITING_APP: mkvpropedit v66.0.0 ('Josie') 64-bit
        _STATISTICS_WRITING_DATE_UTC: 2025-05-26 13:30:24
        _STATISTICS_TAGS: BPS DURATION NUMBER_OF_FRAMES NUMBER_OF_BYTES
Input #1, mov,mp4,m4a,3gp,3g2,mj2, from 'G:\Аниме\Онгоинги\!_34_Весна_2024\DreamCast\Мой сосед-ёкай\[DC] Tonari no Youkai-san - 06_Telegram.mp4':
  Metadata:
    major_brand     : isom
    minor_version   : 512
    compatible_brands: isomiso2avc1mp41
    encoder         : Lavf60.16.100
  Duration: 00:23:46.58, start: 0.000000, bitrate: 3638 kb/s
  Stream #1:0[0x1](und): Video: h264 (High) (avc1 / 0x31637661), yuv420p(tv, bt709, progressive), 1920x1080 [SAR 1:1 DAR 16:9], 3491 kb/s, 23.98 fps, 23.98 tbr, 24k tbn (default)
      Metadata:
        handler_name    : VideoHandler
        vendor_id       : [0][0][0][0]
        encoder         : Lavc60.31.102 h264_qsv
  Stream #1:1[0x2](und): Audio: aac (HE-AACv2) (mp4a / 0x6134706D), 48000 Hz, stereo, fltp, 144 kb/s (default)
      Metadata:
        handler_name    : SoundHandler
        vendor_id       : [0][0][0][0]
Stream mapping:
  Stream #0:0 (hevc) -> settb:default
  Stream #1:0 (h264) -> settb:default
  psnr:default -> Stream #0:0 (wrapped_avframe)
  Stream #0:1 -> #0:1 (aac (native) -> pcm_s16le (native))
Output #0, null, to 'pipe:':
  Metadata:
    COMPATIBLE_BRANDS: isomiso2avc1mp41
    MAJOR_BRAND     : isom
    MINOR_VERSION   : 512
    encoder         : Lavf61.7.100
  Stream #0:0: Video: wrapped_avframe, yuv420p10le(tv, bt709, progressive), 1920x1080 [SAR 1:1 DAR 16:9], q=2-31, 200 kb/s, 23.98 fps, 23.98 tbn
      Metadata:
        encoder         : Lavc61.19.100 wrapped_avframe
  Stream #0:1: Audio: pcm_s16le, 48000 Hz, stereo, s16, 1536 kb/s (default)
      Metadata:
        HANDLER_NAME    : SoundHandler
        VENDOR_ID       : [0][0][0][0]
        _STATISTICS_TAGS: BPS DURATION NUMBER_OF_FRAMES NUMBER_OF_BYTES
        BPS             : 192893
        DURATION        : 00:23:46.602000000
        NUMBER_OF_FRAMES: 66873
        NUMBER_OF_BYTES : 34397715
        _STATISTICS_WRITING_APP: mkvpropedit v66.0.0 ('Josie') 64-bit
        _STATISTICS_WRITING_DATE_UTC: 2025-05-26 13:30:24
        encoder         : Lavc61.19.100 pcm_s16le
frame=  175 fps=0.0 q=-0.0 size=N/A time=00:00:07.29 bitrate=N/A speed=13.9x    frame=  363 fps=353 q=-0.0 size=N/A time=00:00:15.14 bitrate=N/A speed=14.7x    frame=  587 fps=378 q=-0.0 size=N/A time=00:00:24.48 bitrate=N/A speed=15.7x    frame=  782 fps=380 q=-0.0 size=N/A time=00:00:32.61 bitrate=N/A speed=15.8x    frame= 1015 fps=393 q=-0.0 size=N/A time=00:00:42.33 bitrate=N/A speed=16.4x    frame= 1214 fps=393 q=-0.0 size=N/A time=00:00:50.63 bitrate=N/A speed=16.4x    frame= 1426 fps=395 q=-0.0 size=N/A time=00:00:59.47 bitrate=N/A speed=16.5x    frame= 1627 fps=394 q=-0.0 size=N/A time=00:01:07.85 bitrate=N/A speed=16.4x    frame= 1855 fps=399 q=-0.0 size=N/A time=00:01:17.36 bitrate=N/A speed=16.6x    frame= 2052 fps=397 q=-0.0 size=N/A time=00:01:25.58 bitrate=N/A speed=16.6x    frame= 2279 fps=402 q=-0.0 size=N/A time=00:01:35.05 bitrate=N/A speed=16.8x    frame= 2495 fps=403 q=-0.0 size=N/A time=00:01:44.06 bitrate=N/A speed=16.8x    frame= 2732 fps=408 q=-0.0 size=N/A time=00:01:53.94 bitrate=N/A speed=  17x    frame= 3001 fps=415 q=-0.0 size=N/A time=00:02:05.16 bitrate=N/A speed=17.3x    frame= 3281 fps=424 q=-0.0 size=N/A time=00:02:16.84 bitrate=N/A speed=17.7x    frame= 3555 fps=431 q=-0.0 size=N/A time=00:02:28.27 bitrate=N/A speed=  18x    frame= 3815 fps=435 q=-0.0 size=N/A time=00:02:39.11 bitrate=N/A speed=18.1x    frame= 4093 fps=441 q=-0.0 size=N/A time=00:02:50.71 bitrate=N/A speed=18.4x    frame= 4364 fps=445 q=-0.0 size=N/A time=00:03:02.01 bitrate=N/A speed=18.6x    frame= 4630 fps=449 q=-0.0 size=N/A time=00:03:13.10 bitrate=N/A speed=18.7x    frame= 4886 fps=451 q=-0.0 size=N/A time=00:03:23.78 bitrate=N/A speed=18.8x    frame= 5145 fps=454 q=-0.0 size=N/A time=00:03:34.58 bitrate=N/A speed=18.9x    frame= 5425 fps=457 q=-0.0 size=N/A time=00:03:46.26 bitrate=N/A speed=19.1x    frame= 5698 fps=460 q=-0.0 size=N/A time=00:03:57.65 bitrate=N/A speed=19.2x    frame= 5944 fps=461 q=-0.0 size=N/A time=00:04:07.91 bitrate=N/A speed=19.2x    frame= 6187 fps=461 q=-0.0 size=N/A time=00:04:18.04 bitrate=N/A speed=19.2x    frame= 6447 fps=463 q=-0.0 size=N/A time=00:04:28.89 bitrate=N/A speed=19.3x    frame= 6702 fps=464 q=-0.0 size=N/A time=00:04:39.52 bitrate=N/A speed=19.4x    frame= 6974 fps=466 q=-0.0 size=N/A time=00:04:50.87 bitrate=N/A speed=19.4x    frame= 7239 fps=468 q=-0.0 size=N/A time=00:05:01.92 bitrate=N/A speed=19.5x    frame= 7509 fps=469 q=-0.0 size=N/A time=00:05:13.18 bitrate=N/A speed=19.6x    frame= 7770 fps=471 q=-0.0 size=N/A time=00:05:24.07 bitrate=N/A speed=19.6x    frame= 8046 fps=473 q=-0.0 size=N/A time=00:05:35.58 bitrate=N/A speed=19.7x    frame= 8312 fps=474 q=-0.0 size=N/A time=00:05:46.67 bitrate=N/A speed=19.8x    frame= 8588 fps=476 q=-0.0 size=N/A time=00:05:58.19 bitrate=N/A speed=19.8x    frame= 8870 fps=478 q=-0.0 size=N/A time=00:06:09.95 bitrate=N/A speed=19.9x    frame= 9122 fps=478 q=-0.0 size=N/A time=00:06:20.46 bitrate=N/A speed=19.9x    frame= 9356 fps=478 q=-0.0 size=N/A time=00:06:30.22 bitrate=N/A speed=19.9x    frame= 9608 fps=478 q=-0.0 size=N/A time=00:06:40.73 bitrate=N/A speed=19.9x    frame= 9871 fps=479 q=-0.0 size=N/A time=00:06:51.74 bitrate=N/A speed=  20x    frame=10140 fps=480 q=-0.0 size=N/A time=00:07:02.92 bitrate=N/A speed=  20x    frame=10407 fps=480 q=-0.0 size=N/A time=00:07:14.05 bitrate=N/A speed=  20x    frame=10647 fps=480 q=-0.0 size=N/A time=00:07:24.06 bitrate=N/A speed=  20x    frame=10855 fps=478 q=-0.0 size=N/A time=00:07:32.74 bitrate=N/A speed=  20x    frame=11092 fps=478 q=-0.0 size=N/A time=00:07:42.62 bitrate=N/A speed=19.9x    frame=11347 fps=478 q=-0.0 size=N/A time=00:07:53.26 bitrate=N/A speed=19.9x    frame=11605 fps=479 q=-0.0 size=N/A time=00:08:04.02 bitrate=N/A speed=  20x    frame=11874 fps=480 q=-0.0 size=N/A time=00:08:15.24 bitrate=N/A speed=  20x    frame=12117 fps=480 q=-0.0 size=N/A time=00:08:25.37 bitrate=N/A speed=  20x    frame=12371 fps=480 q=-0.0 size=N/A time=00:08:35.97 bitrate=N/A speed=  20x    frame=12626 fps=480 q=-0.0 size=N/A time=00:08:46.60 bitrate=N/A speed=  20x    frame=12865 fps=480 q=-0.0 size=N/A time=00:08:56.57 bitrate=N/A speed=  20x    frame=13088 fps=479 q=-0.0 size=N/A time=00:09:05.87 bitrate=N/A speed=  20x    frame=13332 fps=479 q=-0.0 size=N/A time=00:09:16.05 bitrate=N/A speed=  20x    frame=13594 fps=479 q=-0.0 size=N/A time=00:09:26.98 bitrate=N/A speed=  20x    frame=13859 fps=480 q=-0.0 size=N/A time=00:09:38.03 bitrate=N/A speed=  20x    frame=14129 fps=481 q=-0.0 size=N/A time=00:09:49.29 bitrate=N/A speed=20.1x    frame=14393 fps=481 q=-0.0 size=N/A time=00:10:00.30 bitrate=N/A speed=20.1x    frame=14678 fps=482 q=-0.0 size=N/A time=00:10:12.19 bitrate=N/A speed=20.1x    frame=14950 fps=483 q=-0.0 size=N/A time=00:10:23.53 bitrate=N/A speed=20.2x    frame=15236 fps=484 q=-0.0 size=N/A time=00:10:35.46 bitrate=N/A speed=20.2x    frame=15516 fps=485 q=-0.0 size=N/A time=00:10:47.14 bitrate=N/A speed=20.2x    frame=15782 fps=486 q=-0.0 size=N/A time=00:10:58.24 bitrate=N/A speed=20.3x    frame=16057 fps=487 q=-0.0 size=N/A time=00:11:09.71 bitrate=N/A speed=20.3x    frame=16324 fps=487 q=-0.0 size=N/A time=00:11:20.84 bitrate=N/A speed=20.3x    frame=16585 fps=487 q=-0.0 size=N/A time=00:11:31.73 bitrate=N/A speed=20.3x    frame=16850 fps=488 q=-0.0 size=N/A time=00:11:42.78 bitrate=N/A speed=20.3x    frame=17107 fps=488 q=-0.0 size=N/A time=00:11:53.50 bitrate=N/A speed=20.3x    frame=17378 fps=488 q=-0.0 size=N/A time=00:12:04.80 bitrate=N/A speed=20.4x    frame=17624 fps=488 q=-0.0 size=N/A time=00:12:15.06 bitrate=N/A speed=20.4x    frame=17877 fps=488 q=-0.0 size=N/A time=00:12:25.61 bitrate=N/A speed=20.4x    frame=18121 fps=488 q=-0.0 size=N/A time=00:12:35.79 bitrate=N/A speed=20.4x    frame=18402 fps=489 q=-0.0 size=N/A time=00:12:47.51 bitrate=N/A speed=20.4x    frame=18676 fps=489 q=-0.0 size=N/A time=00:12:58.94 bitrate=N/A speed=20.4x    frame=18914 fps=489 q=-0.0 size=N/A time=00:13:08.87 bitrate=N/A speed=20.4x    frame=19131 fps=488 q=-0.0 size=N/A time=00:13:17.92 bitrate=N/A speed=20.4x    frame=19376 fps=488 q=-0.0 size=N/A time=00:13:28.18 bitrate=N/A speed=20.4x    frame=19652 fps=489 q=-0.0 size=N/A time=00:13:39.65 bitrate=N/A speed=20.4x    frame=19916 fps=489 q=-0.0 size=N/A time=00:13:50.66 bitrate=N/A speed=20.4x    frame=20182 fps=489 q=-0.0 size=N/A time=00:14:01.75 bitrate=N/A speed=20.4x    frame=20407 fps=488 q=-0.0 size=N/A time=00:14:11.14 bitrate=N/A speed=20.4x    frame=20610 fps=487 q=-0.0 size=N/A time=00:14:19.60 bitrate=N/A speed=20.3x    frame=20830 fps=487 q=-0.0 size=N/A time=00:14:28.78 bitrate=N/A speed=20.3x    frame=21067 fps=486 q=-0.0 size=N/A time=00:14:38.66 bitrate=N/A speed=20.3x    frame=21246 fps=485 q=-0.0 size=N/A time=00:14:46.13 bitrate=N/A speed=20.2x    frame=21470 fps=484 q=-0.0 size=N/A time=00:14:55.47 bitrate=N/A speed=20.2x    frame=21705 fps=484 q=-0.0 size=N/A time=00:15:05.27 bitrate=N/A speed=20.2x    frame=21964 fps=484 q=-0.0 size=N/A time=00:15:16.08 bitrate=N/A speed=20.2x    frame=22208 fps=484 q=-0.0 size=N/A time=00:15:26.25 bitrate=N/A speed=20.2x    frame=22472 fps=484 q=-0.0 size=N/A time=00:15:37.26 bitrate=N/A speed=20.2x    frame=22721 fps=484 q=-0.0 size=N/A time=00:15:47.65 bitrate=N/A speed=20.2x    frame=22987 fps=485 q=-0.0 size=N/A time=00:15:58.74 bitrate=N/A speed=20.2x    frame=23232 fps=484 q=-0.0 size=N/A time=00:16:08.96 bitrate=N/A speed=20.2x    frame=23463 fps=484 q=-0.0 size=N/A time=00:16:18.60 bitrate=N/A speed=20.2x    frame=23712 fps=484 q=-0.0 size=N/A time=00:16:28.98 bitrate=N/A speed=20.2x    frame=23980 fps=484 q=-0.0 size=N/A time=00:16:40.16 bitrate=N/A speed=20.2x    frame=24233 fps=485 q=-0.0 size=N/A time=00:16:50.71 bitrate=N/A speed=20.2x    frame=24494 fps=485 q=-0.0 size=N/A time=00:17:01.60 bitrate=N/A speed=20.2x    frame=24732 fps=484 q=-0.0 size=N/A time=00:17:11.53 bitrate=N/A speed=20.2x    frame=24963 fps=484 q=-0.0 size=N/A time=00:17:21.16 bitrate=N/A speed=20.2x    frame=25197 fps=484 q=-0.0 size=N/A time=00:17:30.92 bitrate=N/A speed=20.2x    frame=25448 fps=484 q=-0.0 size=N/A time=00:17:41.39 bitrate=N/A speed=20.2x    frame=25711 fps=484 q=-0.0 size=N/A time=00:17:52.36 bitrate=N/A speed=20.2x    frame=25938 fps=484 q=-0.0 size=N/A time=00:18:01.83 bitrate=N/A speed=20.2x    frame=26174 fps=483 q=-0.0 size=N/A time=00:18:11.67 bitrate=N/A speed=20.2x    frame=26409 fps=483 q=-0.0 size=N/A time=00:18:21.47 bitrate=N/A speed=20.2x    frame=26658 fps=483 q=-0.0 size=N/A time=00:18:31.86 bitrate=N/A speed=20.2x    frame=26919 fps=483 q=-0.0 size=N/A time=00:18:42.74 bitrate=N/A speed=20.2x    frame=27116 fps=482 q=-0.0 size=N/A time=00:18:50.96 bitrate=N/A speed=20.1x    frame=27366 fps=482 q=-0.0 size=N/A time=00:19:01.39 bitrate=N/A speed=20.1x    frame=27645 fps=483 q=-0.0 size=N/A time=00:19:13.02 bitrate=N/A speed=20.1x    frame=27927 fps=484 q=-0.0 size=N/A time=00:19:24.78 bitrate=N/A speed=20.2x    frame=28207 fps=484 q=-0.0 size=N/A time=00:19:36.46 bitrate=N/A speed=20.2x    frame=28494 fps=485 q=-0.0 size=N/A time=00:19:48.43 bitrate=N/A speed=20.2x    frame=28782 fps=485 q=-0.0 size=N/A time=00:20:00.44 bitrate=N/A speed=20.2x    frame=29027 fps=485 q=-0.0 size=N/A time=00:20:10.66 bitrate=N/A speed=20.2x    frame=29252 fps=485 q=-0.0 size=N/A time=00:20:20.05 bitrate=N/A speed=20.2x    frame=29505 fps=485 q=-0.0 size=N/A time=00:20:30.60 bitrate=N/A speed=20.2x    frame=29759 fps=485 q=-0.0 size=N/A time=00:20:41.19 bitrate=N/A speed=20.2x    frame=30028 fps=485 q=-0.0 size=N/A time=00:20:52.41 bitrate=N/A speed=20.2x    frame=30286 fps=485 q=-0.0 size=N/A time=00:21:03.17 bitrate=N/A speed=20.2x    frame=30546 fps=486 q=-0.0 size=N/A time=00:21:14.02 bitrate=N/A speed=20.3x    frame=30806 fps=486 q=-0.0 size=N/A time=00:21:24.86 bitrate=N/A speed=20.3x    frame=31036 fps=485 q=-0.0 size=N/A time=00:21:34.45 bitrate=N/A speed=20.2x    frame=31286 fps=485 q=-0.0 size=N/A time=00:21:44.88 bitrate=N/A speed=20.2x    frame=31558 fps=486 q=-0.0 size=N/A time=00:21:56.23 bitrate=N/A speed=20.3x    frame=31799 fps=486 q=-0.0 size=N/A time=00:22:06.28 bitrate=N/A speed=20.3x    frame=32066 fps=486 q=-0.0 size=N/A time=00:22:17.41 bitrate=N/A speed=20.3x    frame=32302 fps=486 q=-0.0 size=N/A time=00:22:27.26 bitrate=N/A speed=20.3x    frame=32539 fps=485 q=-0.0 size=N/A time=00:22:37.14 bitrate=N/A speed=20.2x    frame=32794 fps=486 q=-0.0 size=N/A time=00:22:47.78 bitrate=N/A speed=20.2x    frame=32987 fps=485 q=-0.0 size=N/A time=00:22:55.83 bitrate=N/A speed=20.2x    frame=33190 fps=484 q=-0.0 size=N/A time=00:23:04.29 bitrate=N/A speed=20.2x    frame=33448 fps=484 q=-0.0 size=N/A time=00:23:15.06 bitrate=N/A speed=20.2x    frame=33698 fps=484 q=-0.0 size=N/A time=00:23:25.48 bitrate=N/A speed=20.2x    frame=33932 fps=484 q=-0.0 size=N/A time=00:23:35.24 bitrate=N/A speed=20.2x    [Parsed_psnr_10 @ 000002314d8b7700] PSNR y:49.208708 u:50.608303 v:50.941147 average:49.669859 min:42.529139 max:inf
[out#0/null @ 0000023145d94e80] video:14696KiB audio:267492KiB subtitle:0KiB other streams:0KiB global headers:0KiB muxing overhead: unknown
frame=34201 fps=484 q=-0.0 Lsize=N/A time=00:23:46.46 bitrate=N/A speed=20.2x    
